<svg width="100" height="100" viewBox="0 0 100 100" fill="none" xmlns="http://www.w3.org/2000/svg">
<g id="Group 11">
<rect id="Rectangle 16" width="100" height="100" fill="#2C2C2D"/>
<g id="Group 10">
<path id="Vector" d="M69.3516 31.5528C68.3573 30.5585 67.0087 30 65.6025 30C64.1964 30 62.8478 30.5585 61.8534 31.5528L59.5163 33.8899L67.0145 41.3881L69.3516 39.051C70.3459 38.0566 70.9044 36.708 70.9044 35.3019C70.9044 33.8957 70.3459 32.5471 69.3516 31.5528ZM64.8713 43.5314L57.373 36.0331L40.405 53.0011C39.1584 54.2471 38.242 55.7842 37.7386 57.4734L36.1226 62.8971C36.0446 63.1588 36.0388 63.4368 36.1058 63.7015C36.1728 63.9663 36.3101 64.208 36.5032 64.4012C36.6964 64.5943 36.9381 64.7316 37.2029 64.7986C37.4676 64.8656 37.7456 64.8598 38.0073 64.7818L43.431 63.1658C45.1202 62.6624 46.6573 61.746 47.9033 60.4994L64.8713 43.5314Z" fill="white"/>
<path id="Vector_2" d="M36.06 37.5744C34.4528 37.5744 32.9114 38.2129 31.7749 39.3493C30.6385 40.4858 30 42.0272 30 43.6344V64.8444C30 66.4516 30.6385 67.993 31.7749 69.1295C32.9114 70.2659 34.4528 70.9044 36.06 70.9044H57.27C58.8772 70.9044 60.4186 70.2659 61.5551 69.1295C62.6915 67.993 63.33 66.4516 63.33 64.8444V54.2394C63.33 53.8376 63.1704 53.4523 62.8863 53.1681C62.6022 52.884 62.2168 52.7244 61.815 52.7244C61.4132 52.7244 61.0278 52.884 60.7437 53.1681C60.4596 53.4523 60.3 53.8376 60.3 54.2394V64.8444C60.3 65.648 59.9808 66.4187 59.4125 66.9869C58.8443 67.5552 58.0736 67.8744 57.27 67.8744H36.06C35.2564 67.8744 34.4857 67.5552 33.9175 66.9869C33.3492 66.4187 33.03 65.648 33.03 64.8444V43.6344C33.03 42.8308 33.3492 42.0601 33.9175 41.4919C34.4857 40.9236 35.2564 40.6044 36.06 40.6044H46.665C47.0668 40.6044 47.4521 40.4448 47.7363 40.1607C48.0204 39.8766 48.18 39.4912 48.18 39.0894C48.18 38.6876 48.0204 38.3023 47.7363 38.0181C47.4521 37.734 47.0668 37.5744 46.665 37.5744H36.06Z" fill="white"/>
</g>
</g>
</svg>
